<?xml version="1.0" encoding="UTF-8"?><svg id="Layer_2" xmlns="http://www.w3.org/2000/svg" viewBox="0 0 520.8 432.66"><defs><style>.cls-1{fill:#fff;}</style></defs><g id="Layer_1-2"><g><path class="cls-1" d="M480.31,323.4c-4.64,0-8.4,3.76-8.4,8.4v84h-88.31c-4.64,0-8.4,3.76-8.4,8.4s3.76,8.4,8.4,8.4h96.71c4.64,0,8.4-3.76,8.4-8.4v-92.4c0-4.64-3.76-8.4-8.4-8.4h0Z"/><path class="cls-1" d="M137.2,415.86H48.89v-84c0-4.64-3.76-8.4-8.4-8.4s-8.4,3.76-8.4,8.4v92.4c0,4.64,3.76,8.4,8.4,8.4h96.71c4.64,0,8.4-3.76,8.4-8.4s-3.76-8.4-8.4-8.4h0Z"/><path class="cls-1" d="M40.49,109.26c4.64,0,8.4-3.76,8.4-8.4V16.86h88.31c4.64,0,8.4-3.76,8.4-8.4S141.84,.05,137.2,.05H40.49c-4.64,0-8.4,3.76-8.4,8.4V100.85c0,4.64,3.76,8.4,8.4,8.4h0Z"/><path class="cls-1" d="M383.6,16.8h88.31V100.8c0,4.64,3.76,8.4,8.4,8.4s8.4-3.76,8.4-8.4V8.4c0-4.64-3.76-8.4-8.4-8.4h-96.71c-4.64,0-8.4,3.76-8.4,8.4s3.76,8.4,8.4,8.4h0Z"/><path class="cls-1" d="M110.21,366.47v-124.94h-16.8v124.94c0,4.64,3.76,8.4,8.4,8.4s8.4-3.76,8.4-8.4h0Z"/><path class="cls-1" d="M93.41,66.19v124.94h16.8V66.19c0-4.64-3.76-8.4-8.4-8.4s-8.4,3.76-8.4,8.4h0Z"/><path class="cls-1" d="M163.91,366.47c0,4.64,3.76,8.4,8.4,8.4s8.4-3.76,8.4-8.4v-124.94h-16.8v124.94Z"/><path class="cls-1" d="M180.71,66.19c0-4.64-3.76-8.4-8.4-8.4s-8.4,3.76-8.4,8.4v124.94h16.8V66.19Z"/><path class="cls-1" d="M383.6,374.87c4.64,0,8.4-3.76,8.4-8.4v-124.94h-16.8v124.94c0,4.64,3.76,8.4,8.4,8.4h0Z"/><path class="cls-1" d="M392.17,66.19c0-4.64-3.76-8.4-8.4-8.4s-8.4,3.76-8.4,8.4v124.94h16.8V66.19Z"/><path class="cls-1" d="M304.86,366.47c0,4.64,3.76,8.4,8.4,8.4s8.4-3.76,8.4-8.4v-124.94h-16.8v124.94Z"/><path class="cls-1" d="M321.67,66.19c0-4.64-3.76-8.4-8.4-8.4s-8.4,3.76-8.4,8.4v124.94h16.8V66.19Z"/><path class="cls-1" d="M251.16,66.19c0-4.64-3.76-8.4-8.4-8.4s-8.4,3.76-8.4,8.4v124.94h16.8V66.19Z"/><path class="cls-1" d="M234.36,366.47c0,4.64,3.76,8.4,8.4,8.4s8.4-3.76,8.4-8.4v-124.94h-16.8v124.94Z"/><path class="cls-1" d="M137.2,57.79c-4.64,0-8.4,3.76-8.4,8.4v124.94h16.8V66.19c0-4.64-3.76-8.4-8.4-8.4h0Z"/><path class="cls-1" d="M128.63,366.47c0,4.64,3.76,8.4,8.4,8.4s8.4-3.76,8.4-8.4v-124.94h-16.8v124.94Z"/><path class="cls-1" d="M199.13,366.47c0,4.64,3.76,8.4,8.4,8.4s8.4-3.76,8.4-8.4v-124.94h-16.8v124.94Z"/><path class="cls-1" d="M215.94,66.19c0-4.64-3.76-8.4-8.4-8.4s-8.4,3.76-8.4,8.4v124.94h16.8V66.19Z"/><path class="cls-1" d="M410.59,66.19v124.94h16.8V66.19c0-4.64-3.76-8.4-8.4-8.4s-8.4,3.76-8.4,8.4h0Z"/><path class="cls-1" d="M427.39,366.47v-124.94h-16.8v124.94c0,4.64,3.76,8.4,8.4,8.4s8.4-3.76,8.4-8.4h0Z"/><path class="cls-1" d="M340.09,366.47c0,4.64,3.76,8.4,8.4,8.4s8.4-3.76,8.4-8.4v-124.94h-16.8v124.94Z"/><path class="cls-1" d="M356.89,66.19c0-4.64-3.76-8.4-8.4-8.4s-8.4,3.76-8.4,8.4v124.94h16.8V66.19Z"/><path class="cls-1" d="M286.44,66.19c0-4.64-3.76-8.4-8.4-8.4s-8.4,3.76-8.4,8.4v124.94h16.8V66.19Z"/><path class="cls-1" d="M269.64,366.47c0,4.64,3.76,8.4,8.4,8.4s8.4-3.76,8.4-8.4v-124.94h-16.8v124.94Z"/><path class="cls-1" d="M512.4,207.93H8.4c-4.64,0-8.4,3.76-8.4,8.4s3.76,8.4,8.4,8.4h504c4.64,0,8.4-3.76,8.4-8.4s-3.76-8.4-8.4-8.4Z"/></g></g></svg>