<?xml version="1.0" encoding="utf-8"?>
<!-- Generator: Adobe Illustrator 26.3.1, SVG Export Plug-In . SVG Version: 6.00 Build 0)  -->
<svg version="1.1" id="Layer_1" xmlns="http://www.w3.org/2000/svg" xmlns:xlink="http://www.w3.org/1999/xlink" x="0px" y="0px"
	 viewBox="0 0 535.6 509.8" style="enable-background:new 0 0 535.6 509.8;" xml:space="preserve">
<style type="text/css">
	.st0{fill-rule:evenodd;clip-rule:evenodd;}
</style>
<g>
	<path class="st0" d="M278.4,7.5l73.5,157.2L524.1,186c4.6,0.6,8.3,3.6,9.7,8c1.4,4.4,0.3,9-3.1,12.2L403.9,324.7l32.9,170.4
		c0.9,4.6-0.9,9-4.6,11.7c-3.8,2.7-8.5,3-12.6,0.8l-151.9-84l-151.9,84c-4.1,2.2-8.8,2-12.6-0.8c-3.8-2.7-5.5-7.1-4.6-11.7
		l32.9-170.4L4.9,206.2c-3.4-3.2-4.6-7.8-3.1-12.2c1.4-4.4,5.1-7.4,9.7-8l172.2-21.3L257.2,7.5c2-4.2,6-6.8,10.6-6.8
		S276.4,3.3,278.4,7.5L278.4,7.5z"/>
</g>
</svg>
