<?xml version="1.0" encoding="UTF-8"?><svg id="Layer_2" xmlns="http://www.w3.org/2000/svg" viewBox="0 0 344.94 448"><defs><style>.cls-1{fill:#0033a1;}</style></defs><g id="Layer_1-2"><g><path class="cls-1" d="M344.04,400.79l-64.66-99.95c-4.1-6.34-10.43-10.7-17.82-12.26-4.23-.9-8.5-.71-12.57,.3-.08-.14-.09-.3-.18-.44l-19.49-30.12c-.5-.77-1.18-1.32-1.92-1.75,29.04-26.24,45.71-64.05,45.05-103.63,37.96-4.98,66.99-37.39,66.99-76.11C339.44,34.47,304.86,0,262.36,0c-25.68,0-49.7,12.88-63.93,33.93-14.79-7.6-30.62-12.39-47.15-14.2-30.21-3.45-59.88,3.16-85.7,19.03l-.75,.44c-.88,.51-1.74,1.01-2.63,1.59-.18,.11-.34,.23-.5,.37-.05,.04-.1,.08-.14,.12-16.43,10.69-30.06,24.57-40.38,41.06-.59,.85-1.1,1.66-1.61,2.49l-.51,.82C8.46,103.54,2.01,123.93,.42,144.6c-1.62,20.35,1.41,41.04,8.75,59.83,3.46,8.95,7.74,17.36,12.72,24.96,19.77,30.62,50.25,51.68,85.84,59.31,9.58,2.05,19.21,3.07,28.79,3.07,18.91,0,37.54-4.02,54.91-11.76,.1,.82,.33,1.62,.81,2.37l19.76,30.53c-2.57,3.32-4.48,7.13-5.38,11.36-1.56,7.36-.15,14.89,3.95,21.18l64.66,100.01c.81,1.25,2.08,2.12,3.53,2.44,.39,.07,.79,.11,1.18,.11,1.07,0,2.14-.31,3.05-.9l59.39-38.57c2.59-1.68,3.33-5.14,1.65-7.74h0ZM262.36,11.2c36.33,0,65.89,29.44,65.89,65.64s-27.16,63.41-61.75,65.52c-8.95,.39-17.84-.7-26.23-3.67-26.2-9.28-43.8-34.14-43.8-61.85,0-2.38,.15-4.86,.48-7.62,.72-6.57,2.52-13.09,5.25-19.18,.91-2.02,1.93-4,3.04-5.91v-.02c11.74-20.3,33.62-32.91,57.12-32.91h0Zm-29.23,136.75c.66,9.31,.02,18.59-1.92,27.64h0c-5.4,25.36-20.4,47.11-42.25,61.26-31.16,20.23-70.37,21.01-102.3,2.04-12.95-7.74-23.67-18.1-31.88-30.82-3.65-5.55-6.67-11.46-8.99-17.63-5.27-13.54-7.45-28.32-6.31-42.75,1.14-14.74,5.73-29.27,13.15-41.83l1.58-2.42c7.51-11.97,17.28-21.89,28.96-29.43l2.85-1.77c15.12-9.34,32.1-14.15,49.68-14.15,3.69,0,7.41,.21,11.15,.64,13.56,1.48,26.9,5.89,38.61,12.78-.01,.14,0,.28-.02,.43-.12,1.68-.19,3.32-.19,4.91,0,1.99,.08,3.97,.23,5.93,.05,.65,.16,1.29,.22,1.94,.14,1.3,.26,2.61,.46,3.9,.12,.77,.29,1.52,.44,2.28,.21,1.15,.42,2.3,.68,3.43,.19,.81,.43,1.6,.65,2.39,.29,1.07,.56,2.14,.89,3.18,.26,.81,.56,1.6,.84,2.39,.36,1.01,.71,2.03,1.11,3.03,.32,.8,.68,1.57,1.03,2.36,.43,.97,.85,1.94,1.31,2.88,.38,.78,.8,1.54,1.21,2.3,.49,.92,.98,1.84,1.5,2.73,.45,.76,.92,1.5,1.39,2.24,.55,.87,1.1,1.74,1.69,2.59,.5,.73,1.04,1.43,1.56,2.14,.61,.82,1.23,1.64,1.87,2.44,.56,.69,1.14,1.36,1.72,2.04,.67,.77,1.34,1.54,2.04,2.28,.62,.66,1.25,1.29,1.89,1.93,.72,.71,1.45,1.42,2.19,2.11,.66,.61,1.34,1.2,2.04,1.79,.77,.66,1.55,1.31,2.36,1.95,.71,.56,1.43,1.11,2.16,1.64,.82,.61,1.66,1.2,2.52,1.77,.75,.51,1.52,1,2.29,1.49,.88,.54,1.76,1.07,2.66,1.58,.8,.45,1.6,.89,2.41,1.32,.93,.48,1.87,.94,2.82,1.39,.83,.39,1.66,.77,2.51,1.14,.39,.18,.77,.37,1.16,.53h0Zm-123.05,129.8c-32.66-7-60.64-26.33-78.8-54.46-4.57-6.97-8.49-14.67-11.67-22.91-6.73-17.24-9.51-36.22-8.02-54.9,1.46-18.98,7.37-37.7,17.01-54l.46-.73c.43-.68,.84-1.34,1.46-2.25,9.68-15.45,22.32-28.26,37.56-38.1,.21-.14,.41-.29,.61-.45,.6-.37,1.18-.71,1.77-1.05l.89-.52c23.77-14.62,50.98-20.67,78.69-17.5,15,1.64,29.38,5.92,42.8,12.75-.17,.35-.3,.71-.46,1.06-.35,.75-.66,1.51-.98,2.27-.63,1.48-1.21,2.98-1.75,4.5-.29,.82-.56,1.63-.82,2.46-.5,1.59-.93,3.19-1.32,4.8-.09,.37-.22,.73-.3,1.11-12.09-6.45-25.47-10.74-39.11-12.22-24-2.74-47.5,2.48-67.96,15.12l-2.95,1.83c-13.16,8.5-24.08,19.58-32.41,32.87l-1.66,2.55c-8.42,14.23-13.54,30.44-14.81,46.86-1.27,16.09,1.16,32.58,7.01,47.63,2.59,6.89,5.99,13.55,10.07,19.75,9.13,14.14,21.08,25.69,35.53,34.32,17.18,10.2,36.23,15.28,55.27,15.28,20.44,0,40.86-5.87,58.86-17.55,24.36-15.78,41.09-40.04,47.11-68.31,1.86-8.66,2.63-17.5,2.35-26.39,.13,.03,.27,.05,.4,.09,1.36,.31,2.71,.64,4.08,.88,.85,.15,1.71,.23,2.56,.35,1.28,.18,2.55,.38,3.84,.49,.89,.08,1.79,.1,2.69,.14,1.08,.06,2.16,.16,3.25,.18,.54,42.79-21.01,83.3-57.12,106.73h0c-28.04,18.17-61.46,24.34-94.12,17.33h0Zm90.7-2.33c3.23-1.74,6.41-3.59,9.52-5.61h0c3.17-2.05,6.19-4.27,9.15-6.55,.14,.39,.22,.8,.46,1.17l18.86,29.15-18.29,11.86-18.86-29.14c-.23-.36-.57-.59-.86-.87h0Zm80.81,159.24l-61.63-95.32c-2.48-3.8-3.33-8.33-2.39-12.75,.94-4.44,3.56-8.25,7.22-10.62,.05-.03,.45-.27,.5-.3l21.16-13.71c2.79-1.82,5.97-2.77,9.22-2.77,1.18,0,2.37,.12,3.55,.38,4.45,.94,8.27,3.57,10.74,7.4l61.62,95.24-50,32.47Z"/><path class="cls-1" d="M105.18,93.32c.73,0,1.47-.14,2.19-.45,2.11-.9,4.29-1.7,6.49-2.37,2.96-.91,4.62-4.04,3.71-7-.91-2.96-4.07-4.61-7-3.71-2.57,.79-5.12,1.72-7.59,2.77-2.84,1.21-4.17,4.5-2.96,7.35,.91,2.13,2.98,3.41,5.16,3.41h0Z"/><path class="cls-1" d="M133.71,223.37c-37.3,0-67.65-30.47-67.65-67.92,0-18.91,7.95-37.11,21.8-49.94,2.27-2.1,2.4-5.65,.3-7.91-2.11-2.27-5.65-2.41-7.91-.3-16.13,14.94-25.39,36.14-25.39,58.16,0,43.62,35.37,79.12,78.85,79.12,3.09,0,5.6-2.51,5.6-5.6s-2.51-5.6-5.6-5.6h0Z"/><path class="cls-1" d="M262.36,109.74c-1.66,0-3.2,.27-4.37,.73-5.6,1.86-9.37,7.1-9.37,13.04,0,7.59,6.16,13.77,13.73,13.77,.97,0,1.96-.11,2.85-.3,6.31-1.3,10.89-6.96,10.89-13.46,0-7.59-6.16-13.77-13.73-13.77h0Zm.58,16.26s-.56,.07-.58,.07c-1.4,0-2.54-1.15-2.54-2.57,0-1.12,.66-2.07,1.94-2.5,.03-.01,.21-.07,.6-.07,1.4,0,2.53,1.15,2.53,2.57,0,1.21-.82,2.26-1.95,2.49h0Z"/><path class="cls-1" d="M243.49,38.79c0,.06,0,.12,.01,.18l4.83,48.37,.29,2.68c0,7.56,6.16,13.7,13.73,13.7s13.73-6.15,13.71-13.18l5.14-51.59c0-.05,.01-.11,.01-.17l.29-2.52c.02-.21,.04-.43,.04-.65,0-2.24-.44-4.54-1.3-6.83-2.07-5.57-6.72-9.9-12.34-11.56-1.72-.54-3.64-.83-5.56-.83-10.59,0-19.2,8.62-19.2,19.22,0,.21,.01,.43,.04,.65l.3,2.52Zm18.87-11.18c.79,0,1.55,.11,2.29,.34,2.35,.7,4.26,2.47,5.12,4.78,.36,.94,.55,1.82,.59,2.63l-5.46,54.66c0,1.41-1.11,2.5-2.53,2.5s-2.54-1.1-2.56-3.05l-5.12-51.12c0-.21-.01-.43-.04-.65l-.27-2.36c.15-4.29,3.68-7.73,8-7.73h0Z"/></g></g></svg>